<svg xmlns="http://www.w3.org/2000/svg" viewBox="0 0 1280 320" width="1280" height="320" role="img" aria-label="CortiCompanion">
  <title>CortiCompanion</title>
  <style>.ink{stroke:#FFFFFF}.inkf{fill:#FFFFFF}.eye{stroke:#2FD59B}.blush{fill:#FF7F9E}.c-head-main,.c-glasses-main{stroke:#FFFFFF}.f-head-main{fill:#FFFFFF}.c-head-acc,.c-glasses-acc,.c-side-main,.c-side-acc,.c-neck-main,.c-neck-acc{stroke:#2FD59B}.f-head-acc,.f-side-main,.f-side-acc,.f-neck-main,.f-neck-acc{fill:#2FD59B}</style>
  <rect width="1280" height="320" fill="#0D1117"/>
  <ellipse cx="204.9" cy="271.6" rx="68.4" ry="9.5" fill="rgba(0,0,0,.45)"/>
  <g transform="translate(204.9 273.6) scale(0.95) translate(-128 -256)"><g class="ink" fill="none" stroke-width="30" stroke-linecap="round"><path d="M104 212L104 241"/><path d="M150 212L150 241"/></g><g transform="translate(0 0)"><path class="ink" fill="none" stroke-width="36" stroke-linecap="round" d="M172.5 56.8A84 84 0 1 0 172.5 199.2"/><g class="blush" opacity="0.4"><ellipse cx="99" cy="146" rx="11" ry="5.5"/><ellipse cx="167" cy="146" rx="11" ry="5.5"/></g><path class="eye" fill="none" stroke-width="12" stroke-linecap="round" stroke-linejoin="round" d="M98 123Q113 100 128 123"/><path class="eye" fill="none" stroke-width="12" stroke-linecap="round" stroke-linejoin="round" d="M148 123Q163 100 178 123"/></g></g>
  
  <g transform="translate(389.8 159.1) scale(0.7684) translate(0 -110)" fill="none" stroke-width="16" stroke-linecap="round" stroke-linejoin="round"><path d="M71.7 62.3A42 42 0 1 0 71.7 121.7" stroke="#FFFFFF"/><path d="M126.698484809835 86A24 24 0 1 1 126.698484809835 134A24 24 0 1 1 126.698484809835 86" stroke="#2FD59B"/><path d="M181.698484809835 86V134" stroke="#FFFFFF"/><path d="M181.698484809835 112A24 24 0 0 1 205.698484809835 88" stroke="#FFFFFF"/><path d="M252.698484809835 70V134" stroke="#FFFFFF"/><path d="M236.698484809835 78H268.698484809835" stroke="#FFFFFF"/><path d="M299.698484809835 86V134" stroke="#FFFFFF"/><circle cx="299.698484809835" cy="58" r="9" fill="#FFFFFF"/><path d="M414.4 62.3A42 42 0 1 0 414.4 121.7" stroke="#FFFFFF"/><path d="M469.39696961967 86A24 24 0 1 1 469.39696961967 134A24 24 0 1 1 469.39696961967 86" stroke="#2FD59B"/><path d="M524.39696961967 86V134" stroke="#FFFFFF"/><path d="M524.39696961967 108A22 22 0 0 1 568.39696961967 108V134" stroke="#FFFFFF"/><path d="M568.39696961967 108A22 22 0 0 1 612.39696961967 108V134" stroke="#FFFFFF"/><path d="M643.39696961967 86V158" stroke="#FFFFFF"/><path d="M667.39696961967 86A24 24 0 1 1 667.39696961967 134A24 24 0 1 1 667.39696961967 86" stroke="#FFFFFF"/><path d="M746.39696961967 86A24 24 0 1 1 746.39696961967 134A24 24 0 1 1 746.39696961967 86" stroke="#FFFFFF"/><path d="M770.39696961967 86V134" stroke="#FFFFFF"/><path d="M801.39696961967 86V134" stroke="#FFFFFF"/><path d="M801.39696961967 110A24 24 0 0 1 849.39696961967 110V134" stroke="#FFFFFF"/><path d="M880.39696961967 86V134" stroke="#FFFFFF"/><circle cx="880.39696961967" cy="58" r="9" fill="#FFFFFF"/><path d="M935.39696961967 86A24 24 0 1 1 935.39696961967 134A24 24 0 1 1 935.39696961967 86" stroke="#2FD59B"/><path d="M990.39696961967 86V134" stroke="#FFFFFF"/><path d="M990.39696961967 110A24 24 0 0 1 1038.39696961967 110V134" stroke="#FFFFFF"/></g>
</svg>
